<svg id="visual" viewBox="0 0 900 600" width="900" height="600" xmlns="http://www.w3.org/2000/svg" xmlns:xlink="http://www.w3.org/1999/xlink" version="1.1"><rect x="0" y="0" width="900" height="600" fill="#bcd3df"></rect><path d="M0 169L37.5 177.7C75 186.3 150 203.7 225 203.5C300 203.3 375 185.7 450 182.8C525 180 600 192 675 192.2C750 192.3 825 180.7 862.5 174.8L900 169L900 0L862.5 0C825 0 750 0 675 0C600 0 525 0 450 0C375 0 300 0 225 0C150 0 75 0 37.5 0L0 0Z" fill="#0066FF" stroke-linecap="round" stroke-linejoin="miter"></path></svg>